{"title":"Lost Girl S02 Ep 06","uid":6787424,"size":437183520,"categoryP":"video","categoryS":"tv_shows","magnet":"?xt=urn:btih:0ba4d0f21ad452ddf2a6ab58ebde53eb54e06611&amp;dn=Lost+Girl+S02+Ep+06&amp;tr=udp%3A%2F%2Ftracker.openbittorrent.com%3A80&amp;tr=udp%3A%2F%2Fopen.demonii.com%3A1337&amp;tr=udp%3A%2F%2Ftracker.coppersurfer.tk%3A6969&amp;tr=udp%3A%2F%2Fexodus.desync.com%3A6969","seeders":0,"leechers":0,"uploader":"KangaLee","files":1,"time":1320105772,"description":"Uploaded by kangalee\n\nThis is just a reconversion to avi of this source file, THANKS scenebalance\n\n\n[pre]...............................................\n. Lost.Girl.S02E06.Its.Better.To.Burn.Out.Than.Fae.Away.480p.WEB-DL.x264-mSD.mkv\n.......................................\n. Duration        :: 44 Minutes\n. Release Size    :: 223MB (83% Compress)\n. x264 r2106      :: 537 Kbps\n. AAC 2ch CBR     :: 160 Kbps\n. Resolution (AR) :: 852x480 (1.775)\n\n\nThis file is the full show WITHOUT the black outs into the start of the show.\n\n\nGeneral\nComplete name                    : D:\\Vids\\Lost.Girl. S02 Ep 06.avi\nFormat                           : AVI\nFormat/Info                      : Audio Video Interleave\nFile size                        : 417 MiB\nDuration                         : 44mn 3s\nOverall bit rate                 : 1 323 Kbps\n\nVideo\nID                               : 0\nFormat                           : MPEG-4 Visual\nFormat profile                   : Advanced Simple@L4\nFormat settings, BVOP            : No\nFormat settings, QPel            : No\nFormat settings, GMC             : No warppoints\nFormat settings, Matrix          : Default (H.263)\nCodec ID                         : XVID\nCodec ID/Hint                    : XviD\nDuration                         : 44mn 3s\nBit rate                         : 1 186 Kbps\nWidth                            : 624 pixels\nHeight                           : 352 pixels\nDisplay aspect ratio             : 16:9\nFrame rate                       : 23.976 fps\nColor space                      : YUV\nChroma subsampling               : 4:2:0\nBit depth                        : 8 bits\nScan type                        : Progressive\nCompression mode                 : Lossy\nBits/(Pixel*Frame)               : 0.225\nStream size                      : 374 MiB (90%)\nWriting library                  : XviD 1.2.1 (UTC 2008-12-04)\n\nAudio\nID                               : 1\nFormat                           : MPEG Audio\nFormat version                   : Version 1\nFormat profile                   : Layer 3\nCodec ID                         : 55\nCodec ID/Hint                    : MP3\nDuration                         : 44mn 3s\nBit rate mode                    : Constant\nBit rate                         : 128 Kbps\nChannel(s)                       : 2 channels\nSampling rate                    : 44.1 KHz\nCompression mode                 : Lossy\nStream size                      : 40.3 MiB (10%)\nAlignment                        : Split accross interleaves\nInterleave, duration             : 42 ms (1.00 video frame)\nWriting library                  : LAMELAME_MAJOR_VERSI\n\n\nEnjoy and please help seed if you can.","torrent":{"xt":"urn:btih:0ba4d0f21ad452ddf2a6ab58ebde53eb54e06611","amp;dn":"Lost+Girl+S02+Ep+06","amp;tr":["udp%3A%2F%2Ftracker.openbittorrent.com%3A80","udp%3A%2F%2Fopen.demonii.com%3A1337","udp%3A%2F%2Ftracker.coppersurfer.tk%3A6969","udp%3A%2F%2Fexodus.desync.com%3A6969"],"infoHash":"0ba4d0f21ad452ddf2a6ab58ebde53eb54e06611","infoHashBuffer":{"type":"Buffer","data":[11,164,208,242,26,212,82,221,242,166,171,88,235,222,83,235,84,224,102,17]},"announce":[],"urlList":[]}}